<svg xmlns="http://www.w3.org/2000/svg" viewBox="0 0 1600 1000" role="img" aria-labelledby="title desc">
  <title id="title">Explore 与 Why 截图占位图</title>
  <desc id="desc">请使用真实 NAMI 产品截图替换 explore-why.webp。</desc>
  <defs>
    <pattern id="grid" width="64" height="64" patternUnits="userSpaceOnUse"><path d="M64 0H0V64" fill="none" stroke="#182126" stroke-width="1"/></pattern>
  </defs>
  <rect width="1600" height="1000" fill="#070b0d"/>
  <rect width="1600" height="1000" fill="url(#grid)"/>
  <rect x="100" y="92" width="1400" height="816" rx="12" fill="#0b1013" stroke="#31424b" stroke-width="2"/>
  <path d="M100 160H1500" stroke="#202a31" stroke-width="2"/>
  <circle cx="134" cy="126" r="7" fill="#e9b44c"/><circle cx="160" cy="126" r="7" fill="#202a31"/><circle cx="186" cy="126" r="7" fill="#202a31"/>
  <g stroke-width="10"><path d="M350 610V490" stroke="#ef5b65"/><path d="M430 570V430" stroke="#34bd84"/><path d="M510 520V350" stroke="#ef5b65"/><path d="M590 600V460" stroke="#ef5b65"/><path d="M670 520V390" stroke="#34bd84"/><path d="M750 470V300" stroke="#ef5b65"/><path d="M830 510V370" stroke="#34bd84"/><path d="M910 420V270" stroke="#ef5b65"/><path d="M990 500V330" stroke="#34bd84"/><path d="M1070 390V240" stroke="#ef5b65"/><path d="M1150 440V300" stroke="#34bd84"/><path d="M1230 360V210" stroke="#ef5b65"/></g>
  <line x1="910" y1="210" x2="910" y2="690" stroke="#e9b44c" stroke-width="4"/>
  <text x="132" y="220" fill="#4bb4e6" font-family="monospace" font-size="20" letter-spacing="4">SCREENSHOT SLOT / 02</text>
  <text x="800" y="790" fill="#d7dcdf" font-family="monospace" font-size="42" text-anchor="middle" letter-spacing="8">EXPLORE + WHY</text>
  <text x="800" y="838" fill="#77838a" font-family="monospace" font-size="18" text-anchor="middle" letter-spacing="3">PLACE 1600 × 1000 WEBP HERE</text>
</svg>
